<svg width="750" height="1400" viewBox="0 0 750 1400" fill="none" xmlns="http://www.w3.org/2000/svg">
<g clip-path="url(#clip0_6_0)">
<rect width="750" height="1400" fill="white"/>
<rect width="750" height="1624" fill="url(#paint0_linear_6_0)" style="mix-blend-mode:multiply"/>
<g filter="url(#filter0_d_6_0)">
<path fill-rule="evenodd" clip-rule="evenodd" d="M375 812C494.294 812 591 723.352 591 614C591 504.648 494.294 416 375 416C255.706 416 159 504.648 159 614C159 723.352 255.706 812 375 812Z" fill="white"/>
<path d="M314.097 653.44L307.857 644.08C306.097 644.4 304.31 644.56 302.497 644.56C297.217 644.56 292.363 643.333 287.937 640.88C283.51 638.373 279.99 634.933 277.377 630.56C274.817 626.133 273.537 621.147 273.537 615.6C273.537 610.053 274.817 605.093 277.377 600.72C279.99 596.293 283.51 592.853 287.937 590.4C292.363 587.947 297.217 586.72 302.497 586.72C307.83 586.72 312.683 587.947 317.057 590.4C321.483 592.853 324.977 596.293 327.537 600.72C330.097 605.093 331.377 610.053 331.377 615.6C331.377 620.24 330.443 624.533 328.577 628.48C326.71 632.373 324.15 635.627 320.897 638.24L332.817 653.44H314.097ZM289.537 615.6C289.537 620.027 290.683 623.547 292.977 626.16C295.27 628.72 298.443 630 302.497 630C306.497 630 309.643 628.693 311.937 626.08C314.283 623.467 315.457 619.973 315.457 615.6C315.457 611.12 314.283 607.6 311.937 605.04C309.643 602.427 306.497 601.12 302.497 601.12C298.443 601.12 295.27 602.427 292.977 605.04C290.683 607.6 289.537 611.12 289.537 615.6ZM384.423 599.12V644H368.663V637.6C367.33 639.627 365.49 641.28 363.143 642.56C360.797 643.787 358.103 644.4 355.063 644.4C349.837 644.4 345.703 642.693 342.663 639.28C339.677 635.813 338.183 631.12 338.183 625.2V599.12H353.783V623.2C353.783 625.76 354.45 627.787 355.783 629.28C357.17 630.72 358.983 631.44 361.223 631.44C363.517 631.44 365.33 630.72 366.663 629.28C367.997 627.787 368.663 625.76 368.663 623.2V599.12H384.423ZM401.267 594.96C398.494 594.96 396.254 594.213 394.547 592.72C392.894 591.173 392.067 589.253 392.067 586.96C392.067 584.613 392.894 582.667 394.547 581.12C396.254 579.573 398.494 578.8 401.267 578.8C403.987 578.8 406.174 579.573 407.827 581.12C409.534 582.667 410.387 584.613 410.387 586.96C410.387 589.253 409.534 591.173 407.827 592.72C406.174 594.213 403.987 594.96 401.267 594.96ZM409.027 599.12V644H393.347V599.12H409.027ZM432.837 630.96H451.957V644H415.557V631.6L433.397 612.16H415.717V599.12H451.317V611.52L432.837 630.96Z" fill="#FF3B3C"/>
</g>
<rect x="60" y="1220" width="630" height="120" rx="60" fill="#FF3B3F"/>
<path d="M330.792 1296.43C328.232 1296.43 325.848 1296.16 323.64 1295.62C321.464 1295.04 319.672 1294.26 318.264 1293.26C317.72 1292.85 317.32 1292.42 317.064 1291.97C316.84 1291.52 316.728 1290.94 316.728 1290.24C316.728 1289.28 317.016 1288.45 317.592 1287.74C318.168 1287.04 318.84 1286.69 319.608 1286.69C320.024 1286.69 320.424 1286.75 320.808 1286.88C321.192 1287.01 321.672 1287.25 322.248 1287.6C323.56 1288.34 324.856 1288.86 326.136 1289.18C327.448 1289.5 328.92 1289.66 330.552 1289.66C332.44 1289.66 333.864 1289.39 334.824 1288.85C335.816 1288.27 336.312 1287.44 336.312 1286.35C336.312 1285.62 335.848 1284.99 334.92 1284.48C334.024 1283.94 332.296 1283.41 329.736 1282.9C326.568 1282.22 324.088 1281.42 322.296 1280.5C320.504 1279.57 319.24 1278.48 318.504 1277.23C317.8 1275.95 317.448 1274.42 317.448 1272.62C317.448 1270.58 318.056 1268.72 319.272 1267.06C320.488 1265.39 322.152 1264.1 324.264 1263.17C326.408 1262.21 328.808 1261.73 331.464 1261.73C333.8 1261.73 335.88 1261.98 337.704 1262.5C339.528 1263.01 341.192 1263.81 342.696 1264.9C343.272 1265.31 343.672 1265.76 343.896 1266.24C344.152 1266.69 344.28 1267.25 344.28 1267.92C344.28 1268.88 343.992 1269.71 343.416 1270.42C342.872 1271.12 342.216 1271.47 341.448 1271.47C341.032 1271.47 340.648 1271.42 340.296 1271.33C339.944 1271.2 339.448 1270.94 338.808 1270.56C338.648 1270.46 338.184 1270.22 337.416 1269.84C336.68 1269.42 335.8 1269.1 334.776 1268.88C333.784 1268.62 332.696 1268.5 331.512 1268.5C329.88 1268.5 328.568 1268.82 327.576 1269.46C326.584 1270.06 326.088 1270.88 326.088 1271.9C326.088 1272.51 326.264 1273.01 326.616 1273.39C326.968 1273.78 327.624 1274.16 328.584 1274.54C329.544 1274.9 330.968 1275.26 332.856 1275.65C335.928 1276.32 338.344 1277.14 340.104 1278.1C341.864 1279.02 343.112 1280.11 343.848 1281.36C344.584 1282.61 344.952 1284.08 344.952 1285.78C344.952 1287.89 344.36 1289.76 343.176 1291.39C341.992 1292.99 340.328 1294.24 338.184 1295.14C336.072 1296 333.608 1296.43 330.792 1296.43ZM362.777 1290.19C364.921 1290.32 365.993 1291.28 365.993 1293.07C365.993 1294.19 365.561 1295.02 364.697 1295.57C363.833 1296.11 362.601 1296.34 361.001 1296.24L359.657 1296.14C356.777 1295.92 354.585 1295.06 353.081 1293.55C351.609 1292.02 350.873 1289.89 350.873 1287.17V1278.67H349.48C346.92 1278.67 345.64 1277.62 345.64 1275.5C345.64 1273.42 346.92 1272.38 349.48 1272.38H350.873V1269.26C350.873 1268.05 351.257 1267.09 352.025 1266.38C352.793 1265.65 353.833 1265.28 355.145 1265.28C356.457 1265.28 357.497 1265.65 358.265 1266.38C359.033 1267.09 359.417 1268.05 359.417 1269.26V1272.38H362.057C364.617 1272.38 365.897 1273.42 365.897 1275.5C365.897 1277.62 364.617 1278.67 362.057 1278.67H359.417V1287.89C359.417 1288.5 359.593 1289.01 359.945 1289.42C360.329 1289.84 360.809 1290.06 361.385 1290.1L362.777 1290.19ZM379.254 1271.81C382.902 1271.81 385.59 1272.69 387.318 1274.45C389.078 1276.18 389.958 1278.82 389.958 1282.37V1292.4C389.958 1293.62 389.59 1294.58 388.854 1295.28C388.15 1295.95 387.158 1296.29 385.878 1296.29C384.758 1296.29 383.83 1295.97 383.094 1295.33C382.39 1294.69 382.006 1293.82 381.942 1292.74C381.494 1293.89 380.742 1294.78 379.686 1295.42C378.63 1296.06 377.366 1296.38 375.894 1296.38C374.262 1296.38 372.79 1296.06 371.478 1295.42C370.166 1294.75 369.126 1293.84 368.358 1292.69C367.622 1291.5 367.254 1290.18 367.254 1288.7C367.254 1287.01 367.686 1285.66 368.55 1284.67C369.446 1283.65 370.854 1282.91 372.774 1282.46C374.694 1282.02 377.286 1281.79 380.55 1281.79H381.846V1281.22C381.846 1280.1 381.59 1279.3 381.078 1278.82C380.566 1278.3 379.702 1278.05 378.486 1278.05C377.174 1278.05 375.254 1278.5 372.726 1279.39C371.99 1279.65 371.366 1279.78 370.854 1279.78C370.054 1279.78 369.414 1279.49 368.934 1278.91C368.454 1278.34 368.214 1277.58 368.214 1276.66C368.214 1275.95 368.358 1275.38 368.646 1274.93C368.934 1274.48 369.398 1274.08 370.038 1273.73C371.158 1273.15 372.566 1272.69 374.262 1272.34C375.958 1271.98 377.622 1271.81 379.254 1271.81ZM377.91 1290.67C379.062 1290.67 380.006 1290.27 380.742 1289.47C381.478 1288.64 381.846 1287.58 381.846 1286.3V1285.73H381.078C379.03 1285.73 377.574 1285.92 376.71 1286.3C375.846 1286.66 375.414 1287.26 375.414 1288.13C375.414 1288.86 375.638 1289.47 376.086 1289.95C376.566 1290.43 377.174 1290.67 377.91 1290.67ZM409.722 1271.9C410.81 1271.81 411.674 1272.06 412.314 1272.67C412.954 1273.25 413.274 1274.11 413.274 1275.26C413.274 1276.54 412.97 1277.47 412.362 1278.05C411.786 1278.62 410.73 1278.99 409.194 1279.15L407.754 1279.3C406.154 1279.49 405.002 1280 404.298 1280.83C403.626 1281.63 403.29 1282.74 403.29 1284.14V1292.35C403.29 1293.66 402.874 1294.66 402.042 1295.33C401.242 1295.97 400.234 1296.29 399.018 1296.29C397.802 1296.29 396.778 1295.97 395.946 1295.33C395.146 1294.66 394.746 1293.66 394.746 1292.35V1275.74C394.746 1274.53 395.146 1273.58 395.946 1272.91C396.778 1272.24 397.77 1271.9 398.922 1271.9C400.106 1271.9 401.05 1272.22 401.754 1272.86C402.49 1273.5 402.858 1274.4 402.858 1275.55V1276.46C403.37 1275.06 404.202 1273.97 405.354 1273.2C406.538 1272.43 407.77 1272.02 409.05 1271.95L409.722 1271.9ZM431.355 1290.19C433.499 1290.32 434.571 1291.28 434.571 1293.07C434.571 1294.19 434.139 1295.02 433.275 1295.57C432.411 1296.11 431.179 1296.34 429.579 1296.24L428.235 1296.14C425.355 1295.92 423.163 1295.06 421.659 1293.55C420.187 1292.02 419.451 1289.89 419.451 1287.17V1278.67H418.059C415.499 1278.67 414.219 1277.62 414.219 1275.5C414.219 1273.42 415.499 1272.38 418.059 1272.38H419.451V1269.26C419.451 1268.05 419.835 1267.09 420.603 1266.38C421.371 1265.65 422.411 1265.28 423.723 1265.28C425.035 1265.28 426.075 1265.65 426.843 1266.38C427.611 1267.09 427.995 1268.05 427.995 1269.26V1272.38H430.635C433.195 1272.38 434.475 1273.42 434.475 1275.5C434.475 1277.62 433.195 1278.67 430.635 1278.67H427.995V1287.89C427.995 1288.5 428.171 1289.01 428.523 1289.42C428.907 1289.84 429.387 1290.06 429.963 1290.1L431.355 1290.19Z" fill="white"/>
<g clip-path="url(#clip1_6_0)">
<g opacity="0.28">
<path opacity="0.28" d="M257.076 95.394C257.076 94.0685 256.004 92.994 254.682 92.994C253.359 92.994 252.287 94.0685 252.287 95.394V107.4C252.287 108.725 253.359 109.8 254.682 109.8C256.004 109.8 257.076 108.725 257.076 107.4V95.394Z" fill="#FF7304"/>
<path opacity="0.28" d="M257.076 95.394C257.076 94.0685 256.004 92.994 254.682 92.994C253.359 92.994 252.287 94.0685 252.287 95.394V107.4C252.287 108.725 253.359 109.8 254.682 109.8C256.004 109.8 257.076 108.725 257.076 107.4V95.394Z" fill="url(#paint1_linear_6_0)" fill-opacity="0.19"/>
</g>
<path d="M257.076 105C257.076 103.675 256.004 102.6 254.682 102.6C253.359 102.6 252.287 103.675 252.287 105V107.4C252.287 108.725 253.359 109.8 254.682 109.8C256.004 109.8 257.076 108.725 257.076 107.4V105Z" fill="#FF7304"/>
<path d="M257.076 105C257.076 103.675 256.004 102.6 254.682 102.6C253.359 102.6 252.287 103.675 252.287 105V107.4C252.287 108.725 253.359 109.8 254.682 109.8C256.004 109.8 257.076 108.725 257.076 107.4V105Z" fill="url(#paint2_linear_6_0)" fill-opacity="0.19"/>
<path d="M269.049 95.394C269.049 94.0685 267.977 92.994 266.654 92.994C265.332 92.994 264.26 94.0685 264.26 95.394V107.4C264.26 108.725 265.332 109.8 266.654 109.8C267.977 109.8 269.049 108.725 269.049 107.4V95.394Z" fill="#FF7304"/>
<path d="M269.049 95.394C269.049 94.0685 267.977 92.994 266.654 92.994C265.332 92.994 264.26 94.0685 264.26 95.394V107.4C264.26 108.725 265.332 109.8 266.654 109.8C267.977 109.8 269.049 108.725 269.049 107.4V95.394Z" fill="url(#paint3_linear_6_0)" fill-opacity="0.19"/>
<path d="M257.549 42L231.173 88.2C230.854 88.7534 230.708 89.3904 230.755 90.0282C230.801 90.6658 231.038 91.2747 231.435 91.7757C231.831 92.2766 232.369 92.6464 232.978 92.8369C233.587 93.0274 234.239 93.0299 234.849 92.844L259.094 83.556C260.118 83.2319 261.218 83.2319 262.242 83.556L286.487 92.844C287.097 93.0299 287.749 93.0274 288.358 92.8369C288.967 92.6464 289.505 92.2766 289.901 91.7757C290.298 91.2747 290.535 90.6658 290.581 90.0282C290.628 89.3904 290.482 88.7534 290.162 88.2L263.787 42C263.473 41.4488 263.019 40.9907 262.471 40.672C261.923 40.3534 261.301 40.1855 260.668 40.1855C260.035 40.1855 259.413 40.3534 258.865 40.672C258.317 40.9907 257.863 41.4488 257.549 42Z" fill="#FF7304"/>
<path d="M257.549 42L231.173 88.2C230.854 88.7534 230.708 89.3904 230.755 90.0282C230.801 90.6658 231.038 91.2747 231.435 91.7757C231.831 92.2766 232.369 92.6464 232.978 92.8369C233.587 93.0274 234.239 93.0299 234.849 92.844L259.094 83.556C260.118 83.2319 261.218 83.2319 262.242 83.556L286.487 92.844C287.097 93.0299 287.749 93.0274 288.358 92.8369C288.967 92.6464 289.505 92.2766 289.901 91.7757C290.298 91.2747 290.535 90.6658 290.581 90.0282C290.628 89.3904 290.482 88.7534 290.162 88.2L263.787 42C263.473 41.4488 263.019 40.9907 262.471 40.672C261.923 40.3534 261.301 40.1855 260.668 40.1855C260.035 40.1855 259.413 40.3534 258.865 40.672C258.317 40.9907 257.863 41.4488 257.549 42Z" fill="url(#paint4_linear_6_0)" fill-opacity="0.19"/>
<path d="M334.04 60.9592H325.794V75.6042C325.794 79.2775 323.768 81.3075 320.586 81.3075C317.5 81.3075 315.426 79.2775 315.426 75.6042V60.9592H307.228V76.7158C307.228 83.9175 311.423 88.2192 317.644 88.2192C321.261 88.2192 324.154 86.5758 325.794 84.2558V87.9292H334.04V60.9592Z" fill="#222222"/>
<path d="M347.727 64.7775V60.9592H339.481V100.786H347.727V84.1592C349.222 86.4308 352.067 88.3158 356.021 88.3158C362.628 88.3158 367.884 82.9025 367.884 74.3958C367.884 65.8892 362.628 60.5725 356.021 60.5725C352.067 60.5725 349.222 62.4092 347.727 64.7775ZM359.493 74.3958C359.493 78.6975 356.697 81.1142 353.562 81.1142C350.476 81.1142 347.679 78.7458 347.679 74.4442C347.679 70.1425 350.476 67.7742 353.562 67.7742C356.697 67.7742 359.493 70.0942 359.493 74.3958Z" fill="#222222"/>
<path d="M379.974 75.4108C379.974 70.7708 382.24 69.4175 386.146 69.4175H388.413V60.6692C384.796 60.6692 381.855 62.6025 379.974 65.4542V60.9592H371.728V87.9292H379.974V75.4108Z" fill="#222222"/>
<path d="M390.233 74.3958C390.233 82.9025 395.489 88.3158 402.048 88.3158C406.05 88.3158 408.895 86.4792 410.39 84.1108V87.9292H418.636V60.9592H410.39V64.7775C408.943 62.4092 406.098 60.5725 402.096 60.5725C395.489 60.5725 390.233 65.8892 390.233 74.3958ZM410.39 74.4442C410.39 78.7458 407.641 81.1142 404.507 81.1142C401.421 81.1142 398.624 78.6975 398.624 74.3958C398.624 70.0942 401.421 67.7742 404.507 67.7742C407.641 67.7742 410.39 70.1425 410.39 74.4442Z" fill="#222222"/>
<path d="M424.119 87.9292H432.366V60.9592H424.119V87.9292ZM428.267 58.1558C431.16 58.1558 433.137 56.1742 433.137 53.7092C433.137 51.1958 431.16 49.2142 428.267 49.2142C425.325 49.2142 423.348 51.1958 423.348 53.7092C423.348 56.1742 425.325 58.1558 428.267 58.1558Z" fill="#222222"/>
<path d="M459.704 80.0992C459.559 70.0458 444.996 73.0908 444.996 68.7892C444.996 67.4842 446.057 66.7108 447.986 66.7108C450.3 66.7108 451.699 67.9192 451.94 69.7558H459.559C459.029 64.4392 455.171 60.5725 448.227 60.5725C441.186 60.5725 437.28 64.3425 437.28 68.9342C437.28 78.8425 451.94 75.7008 451.94 80.0508C451.94 81.2592 450.831 82.2258 448.709 82.2258C446.442 82.2258 444.755 80.9692 444.562 79.0842H436.412C436.798 84.3042 441.62 88.3158 448.805 88.3158C455.557 88.3158 459.704 84.7875 459.704 80.0992Z" fill="#222222"/>
<path d="M476.129 67.1942C478.878 67.1942 481.193 68.8858 481.193 71.8342H470.873C471.355 68.8375 473.429 67.1942 476.129 67.1942ZM489.005 78.9875H480.228C479.553 80.4375 478.251 81.5975 475.936 81.5975C473.284 81.5975 471.114 79.9542 470.825 76.4258H489.487C489.584 75.6042 489.632 74.7825 489.632 74.0092C489.632 65.7925 484.086 60.5725 476.226 60.5725C468.221 60.5725 462.627 65.8892 462.627 74.4442C462.627 82.9992 468.317 88.3158 476.226 88.3158C482.929 88.3158 487.703 84.2558 489.005 78.9875Z" fill="#222222"/>
<path d="M491.86 74.3958C491.86 82.9025 497.116 88.3158 503.723 88.3158C507.677 88.3158 510.522 86.5275 512.017 84.0625V87.9292H520.263V52.1625H512.017V64.6808C510.378 62.2158 507.291 60.5725 503.723 60.5725C497.116 60.5725 491.86 65.8892 491.86 74.3958ZM512.017 74.4442C512.017 78.7458 509.269 81.1142 506.134 81.1142C503.048 81.1142 500.251 78.6975 500.251 74.3958C500.251 70.0942 503.048 67.7742 506.134 67.7742C509.269 67.7742 512.017 70.1425 512.017 74.4442Z" fill="#222222"/>
</g>
</g>
<defs>
<filter id="filter0_d_6_0" x="151" y="416" width="448" height="412" filterUnits="userSpaceOnUse" color-interpolation-filters="sRGB">
<feFlood flood-opacity="0" result="BackgroundImageFix"/>
<feColorMatrix in="SourceAlpha" type="matrix" values="0 0 0 0 0 0 0 0 0 0 0 0 0 0 0 0 0 0 127 0" result="hardAlpha"/>
<feOffset dy="8"/>
<feGaussianBlur stdDeviation="4"/>
<feColorMatrix type="matrix" values="0 0 0 0 0 0 0 0 0 0 0 0 0 0 0 0 0 0 0.1 0"/>
<feBlend mode="normal" in2="BackgroundImageFix" result="effect1_dropShadow_6_0"/>
<feBlend mode="normal" in="SourceGraphic" in2="effect1_dropShadow_6_0" result="shape"/>
</filter>
<linearGradient id="paint0_linear_6_0" x1="375" y1="51" x2="375" y2="1404.5" gradientUnits="userSpaceOnUse">
<stop offset="0.0572917" stop-color="#AF9CF3" stop-opacity="0"/>
<stop offset="1" stop-color="#AF9CF3"/>
</linearGradient>
<linearGradient id="paint1_linear_6_0" x1="254.682" y1="92.994" x2="254.682" y2="109.8" gradientUnits="userSpaceOnUse">
<stop stop-color="white"/>
<stop offset="1" stop-color="white" stop-opacity="0"/>
</linearGradient>
<linearGradient id="paint2_linear_6_0" x1="254.682" y1="102.6" x2="254.682" y2="109.8" gradientUnits="userSpaceOnUse">
<stop stop-color="white"/>
<stop offset="1" stop-color="white" stop-opacity="0"/>
</linearGradient>
<linearGradient id="paint3_linear_6_0" x1="266.654" y1="92.994" x2="266.654" y2="109.8" gradientUnits="userSpaceOnUse">
<stop stop-color="white"/>
<stop offset="1" stop-color="white" stop-opacity="0"/>
</linearGradient>
<linearGradient id="paint4_linear_6_0" x1="260.668" y1="40.1855" x2="260.668" y2="92.9817" gradientUnits="userSpaceOnUse">
<stop stop-color="white"/>
<stop offset="1" stop-color="white" stop-opacity="0"/>
</linearGradient>
<clipPath id="clip0_6_0">
<rect width="750" height="1400" fill="white"/>
</clipPath>
<clipPath id="clip1_6_0">
<rect width="291" height="70" fill="white" transform="translate(230 40)"/>
</clipPath>
</defs>
</svg>
